<svg xmlns="http://www.w3.org/2000/svg" viewBox="0 0 2500 2500" fill="none">
  <path fill="#000" d="M0 0h2500v2500H0z"/>
  <path fill="#fff" d="M1287 912.2c0-84.4-68-152.4-152.4-152.4-84.4 0-152.4 68-152.4 152.4 0 62.4 37.6 116.4 92 140v4.8l-374.4 374.4c-12 12-12 31.6 0 43.6s31.6 12 43.6 0l161.2-161.2-13.6-13.6c-48-48-48-125.6 0-173.6 48-48 125.6-48 173.6 0l13.6 13.6 198.8-198.8v-4.8c-.4-14-10-24.8-10-24.8zm-918 0c0 84.4 68 152.4 152.4 152.4 84.4 0 152.4-68 152.4-152.4 0-62.4-37.6-116.4-92-140v-4.8l374.4-374.4c12-12 12-31.6 0-43.6s-31.6-12-43.6 0L751 510.6l13.6 13.6c48 48 48 125.6 0 173.6-48 48-125.6 48-173.6 0L577.4 684.2 378.6 883v4.8c.4 14 10.4 24.4 10.4 24.4zm918 675.6c0 84.4 68 152.4 152.4 152.4 84.4 0 152.4-68 152.4-152.4 0-62.4-37.6-116.4-92-140v-4.8l374.4-374.4c12-12 12-31.6 0-43.6-12-12-31.6-12-43.6 0l-161.2 161.2 13.6 13.6c48 48 48 125.6 0 173.6-48 48-125.6 48-173.6 0l-13.6-13.6-198.8 198.8v4.8c.4 13.6 10 24.4 10 24.4zm-459-337.6c-84.4 0-152.4 68-152.4 152.4 0 84.4 68 152.4 152.4 152.4s152.4-68 152.4-152.4c0-84.4-68-152.4-152.4-152.4z"/>
</svg>
