<svg role="img" viewBox="0 0 24 24" xmlns="http://www.w3.org/2000/svg" fill="#fff"><path d="M22.2819 9.8211a5.9847 5.9847 0 0 0-.5157-4.9108 6.0462 6.0462 0 0 0-6.5098-2.9A6.0651 6.0651 0 0 0 4.9807 4.1818a5.9847 5.9847 0 0 0-3.9977 2.9 6.0462 6.0462 0 0 0 .7427 7.0966 5.98 5.98 0 0 0 .511 4.9107 6.0462 6.0462 0 0 0 6.5146 2.9001A5.9847 5.9847 0 0 0 13.2599 24a6.0557 6.0557 0 0 0 5.7718-4.2058 5.9894 5.9894 0 0 0 3.9977-2.9001 6.0557 6.0557 0 0 0-.7475-7.0729zm-9.022 12.6081a4.4755 4.4755 0 0 1-2.8764-1.0408l.1419-.0843 3.5262-1.9216h-4.062a4.4842 4.4842 0 0 1-1.0186-2.5833 4.4755 4.4755 0 0 1 1.7056-2.9084l.8703 1.5037 4.7075 2.5057v4.5145a4.4566 4.4566 0 0 1-3.0905.023l.1157-.0084zm-7.348-3.0851a4.4717 4.4717 0 0 1-.6036-3.8768l2.9108 1.6888.8954 1.547-2.4552 1.3424a4.4623 4.4623 0 0 1-.7473-.7013zm2.592-9.423a4.4567 4.4567 0 0 1 3.5857-1.4646v2.3218l-3.5857 2.0594-1.6373-2.8344a4.465 4.465 0 0 1 1.6374-.0821zm10.5964 1.2588l-4.7075-2.5061v-4.514a4.4755 4.4755 0 0 1 2.8576 1.0503l-3.668 2.0004h4.062a4.4842 4.4842 0 0 1 1.0422 2.5834 4.4755 4.4755 0 0 1-1.7303 2.9248l-.856-1.5388zm-3.344 7.6322l-2.9108-1.6888-.8954-1.547 2.4552-1.3424a4.4622 4.4622 0 0 1 .7474.7013 4.4717 4.4717 0 0 1 .6036 3.8768zm3.6288-4.2259a4.4567 4.4567 0 0 1-3.5857 1.4646v-2.3218l3.5857-2.0594 1.6374 2.8344a4.465 4.465 0 0 1-1.6374.0821z"/></svg>
